<svg width="176" height="63" viewBox="0 0 176 63" fill="none" xmlns="http://www.w3.org/2000/svg">
<path d="M62 31.4924C62.0015 37.5251 60.214 43.4227 56.8635 48.4394C53.513 53.4561 48.7501 57.3665 43.1771 59.6761C37.6041 61.9858 31.4713 62.5909 25.5544 61.4149C19.6375 60.2389 14.2022 57.3346 9.93593 53.0694C5.66967 48.8042 2.76408 43.3696 1.58662 37.453C0.409154 31.5364 1.01271 25.4035 3.32096 19.8299C5.62921 14.2563 9.53847 9.49242 14.5543 6.1407C19.5702 2.78899 25.4674 1 31.5 1C35.505 0.999009 39.4709 1.78699 43.1713 3.31893C46.8717 4.85087 50.234 7.09677 53.0663 9.92836C55.8986 12.7599 58.1453 16.1217 59.6782 19.8217C61.211 23.5217 62 27.4875 62 31.4924Z" fill="#FF3838" stroke="white" stroke-width="0.5" stroke-miterlimit="10"/>
<path d="M40.2805 25.0953C39.9262 25.9856 39.5858 26.9111 39.2385 27.879C38.8356 29.0283 38.4791 30.1423 38.1688 31.2209L35.9807 37.9117L32.3825 26.3529C31.6878 24.0355 31.0418 21.7111 30.3611 19.3936C30.3545 19.185 30.4237 18.9813 30.5556 18.8214C30.7154 18.5882 30.9793 18.454 31.8962 18.3197C32.4109 18.1988 32.938 18.1419 33.4661 18.1502C33.7117 18.1546 33.9532 18.0859 34.1607 17.9523C34.2699 17.8883 34.3704 17.8099 34.4594 17.7192C34.5517 17.7144 34.64 17.6795 34.7113 17.6197C34.7826 17.5599 34.8331 17.4783 34.8554 17.3871C34.8717 17.2806 34.8468 17.1718 34.786 17.0835C34.7251 16.9952 34.6329 16.9344 34.5289 16.9137L20.6779 16.8148L20.1569 17.3518L24.3664 19.3018L25.4153 21.9866L22.7132 29.3416L19.6151 37.94L17.4895 31.6943C16.1002 27.7307 14.8082 23.7953 13.4745 19.8317C13.4308 19.7619 13.4068 19.6813 13.405 19.5985C13.3717 19.3172 13.4409 19.0331 13.5995 18.8002C13.8288 18.4681 14.2247 18.3974 14.9888 18.2632C15.4556 18.2102 15.9193 18.1323 16.3781 18.03C16.7046 17.9311 16.9338 17.8605 17.0727 17.7969C17.1505 17.6637 17.1958 17.5135 17.2047 17.3588C17.2174 17.1813 17.1709 17.0046 17.0727 16.8572H3.24948C3.18293 16.9271 3.1313 17.0103 3.09783 17.1015C3.06436 17.1927 3.04977 17.2899 3.05499 17.3871C3.1175 17.6909 3.47871 17.8252 4.65265 18.2915C5.47232 18.5953 5.34728 18.5317 5.5001 18.5953C7.00746 19.2382 7.36172 19.7752 7.49371 20.0083C7.55064 20.1033 7.59501 20.2054 7.62569 20.3121C8.5426 22.7638 9.48731 25.2578 10.4042 27.766C11.0989 29.6878 12.0644 32.8742 14.2247 38.2862C14.7804 40.1373 15.4612 42.052 16.2461 44.0303C16.5101 44.7015 16.8018 45.3727 17.0658 46.0156C17.6215 46.051 18.1772 46.0792 18.7329 46.1499L20.9627 39.3884L26.2419 23.6964C27.1241 26.2823 28.0063 28.9035 28.8537 31.4682C30.4236 36.2443 31.9935 41.0134 33.5634 45.8178C33.8306 46.0415 34.1623 46.1705 34.5081 46.1852C34.8209 46.1802 35.1262 46.0873 35.3903 45.9167C37.4093 39.0163 39.433 32.1135 41.4614 25.2084L40.2805 25.0953Z" fill="white"/>
<path d="M50.5691 15.9439C46.4063 15.9439 42.2585 15.9439 38.0579 15.9061C37.9915 15.998 37.9504 16.1055 37.9384 16.2182C37.9265 16.3308 37.9442 16.4446 37.9899 16.5483C38.0956 16.7674 38.3449 16.843 38.7 16.911C39.2857 17.0416 39.8785 17.1375 40.4755 17.1981C40.9492 17.263 41.4134 17.3848 41.8581 17.5607C42.165 17.6228 42.4358 17.8015 42.6136 18.0593C42.767 18.3075 42.8285 18.6016 42.7874 18.8904C42.6438 19.389 42.5003 19.8952 42.3643 20.4014C42.8554 20.4014 43.3918 20.4014 43.8753 20.3334C44.0188 19.865 44.1548 19.4344 44.2682 18.966C44.675 18.5656 45.1478 18.2385 45.6659 17.9989C46.0377 17.8163 46.4312 17.6818 46.8369 17.5985C47.9702 17.3114 49.1034 16.9941 50.282 16.707C50.3878 16.5936 50.5314 16.5256 50.6371 16.4123C50.6298 16.2543 50.607 16.0975 50.5691 15.9439Z" fill="white"/>
<path d="M56.9382 39.705C56.2332 40.7775 55.679 41.9418 55.2911 43.1652C55.0971 43.8042 54.7643 44.3924 54.3165 44.8878C53.8765 45.3289 53.3216 45.6377 52.7148 45.7793C51.8522 46.0326 50.9772 46.2419 50.0932 46.4064C49.2093 46.5726 48.1516 46.701 46.973 46.8295L44.306 47.1694C43.7159 47.243 43.1176 47.2123 42.5381 47.0788C42.659 46.7464 42.9612 46.1571 43.3767 45.2731L43.6789 44.6763L55.4196 21.4594C55.3742 21.2932 55.3743 21.1647 55.3365 20.991C55.2987 20.8172 55.2911 20.6586 55.2458 20.4923C55.2005 20.3261 55.1627 20.1901 55.1249 20.0239C47.4716 20.9532 43.9736 21.2479 42.183 21.331C41.843 21.331 39.4783 21.4594 36.2674 21.6709C35.8065 21.7087 35.3834 21.7087 35.1719 21.754C35.3381 24.3228 35.5119 26.8915 35.6781 29.4678C36.018 29.4678 36.3505 29.4225 36.6905 29.4225C37.0296 28.7109 37.3249 27.9792 37.5744 27.2315L37.8766 26.3853C38.0871 25.7263 38.4645 25.1329 38.9721 24.6628C39.381 24.2868 39.8728 24.0124 40.4076 23.8619C40.5738 23.8166 40.7853 23.7788 40.9969 23.7335C41.0751 23.6868 41.1629 23.6584 41.2537 23.6504H41.3368C41.6768 23.605 42.0924 23.5219 42.523 23.4842L43.2785 23.3935C43.3994 23.3935 43.5278 23.3557 43.6109 23.3557L50.1386 22.5322L48.9826 24.9121L37.0002 48.7711L37.174 49.6551L54.0672 47.585C54.517 47.5422 54.9698 47.5422 55.4196 47.585H56.0542C56.3489 47.585 56.5982 47.5396 56.855 47.5396L57.6559 47.4565C57.6559 46.6557 57.603 45.8322 57.6106 44.9709C57.6171 43.2391 57.7179 41.5089 57.9128 39.7881L56.9382 39.705Z" fill="white"/>
<path d="M73.536 27L70.16 15.48H72.448L74.608 23.4L76.768 15.496L79.056 15.48L81.216 23.4L83.376 15.48H85.664L82.288 27H80.144L77.912 19.224L75.68 27H73.536ZM90.011 27.24C89.1257 27.24 88.3443 27.0507 87.667 26.672C86.995 26.288 86.467 25.7627 86.083 25.096C85.7043 24.424 85.515 23.656 85.515 22.792C85.515 21.848 85.7017 21.0267 86.075 20.328C86.4483 19.6293 86.963 19.088 87.619 18.704C88.275 18.3147 89.0297 18.12 89.883 18.12C90.7897 18.12 91.5603 18.3333 92.195 18.76C92.8297 19.1867 93.299 19.7867 93.603 20.56C93.907 21.3333 94.0137 22.2427 93.923 23.288H91.771V22.488C91.771 21.608 91.6297 20.976 91.347 20.592C91.0697 20.2027 90.6137 20.008 89.979 20.008C89.2377 20.008 88.691 20.2347 88.339 20.688C87.9923 21.136 87.819 21.8 87.819 22.68C87.819 23.4853 87.9923 24.1093 88.339 24.552C88.691 24.9893 89.2057 25.208 89.883 25.208C90.3097 25.208 90.675 25.1147 90.979 24.928C91.283 24.7413 91.515 24.472 91.675 24.12L93.851 24.744C93.5257 25.5333 93.011 26.1467 92.307 26.584C91.6083 27.0213 90.843 27.24 90.011 27.24ZM87.147 23.288V21.672H92.875V23.288H87.147ZM99.9694 27.24C99.1107 27.24 98.3934 27.04 97.8174 26.64C97.2414 26.24 96.8067 25.696 96.5134 25.008C96.2254 24.32 96.0814 23.544 96.0814 22.68C96.0814 21.816 96.2254 21.04 96.5134 20.352C96.8014 19.664 97.2254 19.12 97.7854 18.72C98.3454 18.32 99.036 18.12 99.8574 18.12C100.684 18.12 101.404 18.3173 102.017 18.712C102.631 19.1067 103.105 19.648 103.441 20.336C103.783 21.0187 103.953 21.8 103.953 22.68C103.953 23.544 103.785 24.32 103.449 25.008C103.119 25.696 102.655 26.24 102.057 26.64C101.46 27.04 100.764 27.24 99.9694 27.24ZM95.7134 27V15.48H97.9054V21.08H97.6334V27H95.7134ZM99.6174 25.304C100.087 25.304 100.471 25.1867 100.769 24.952C101.068 24.7173 101.289 24.4027 101.433 24.008C101.577 23.608 101.649 23.1653 101.649 22.68C101.649 22.2 101.575 21.7627 101.425 21.368C101.276 20.968 101.044 20.6507 100.729 20.416C100.42 20.176 100.023 20.056 99.5374 20.056C99.084 20.056 98.716 20.1653 98.4334 20.384C98.156 20.6027 97.9534 20.9093 97.8254 21.304C97.6974 21.6987 97.6334 22.1573 97.6334 22.68C97.6334 23.2027 97.6974 23.6613 97.8254 24.056C97.9534 24.4507 98.1614 24.7573 98.4494 24.976C98.7427 25.1947 99.132 25.304 99.6174 25.304ZM109.954 27.24C109.095 27.24 108.378 27.04 107.802 26.64C107.226 26.24 106.791 25.696 106.498 25.008C106.21 24.32 106.066 23.544 106.066 22.68C106.066 21.816 106.21 21.04 106.498 20.352C106.786 19.664 107.21 19.12 107.77 18.72C108.33 18.32 109.02 18.12 109.842 18.12C110.668 18.12 111.388 18.3173 112.002 18.712C112.615 19.1067 113.09 19.648 113.426 20.336C113.767 21.0187 113.938 21.8 113.938 22.68C113.938 23.544 113.77 24.32 113.434 25.008C113.103 25.696 112.639 26.24 112.042 26.64C111.444 27.04 110.748 27.24 109.954 27.24ZM105.698 27V15.48H107.89V21.08H107.618V27H105.698ZM109.602 25.304C110.071 25.304 110.455 25.1867 110.754 24.952C111.052 24.7173 111.274 24.4027 111.418 24.008C111.562 23.608 111.634 23.1653 111.634 22.68C111.634 22.2 111.559 21.7627 111.41 21.368C111.26 20.968 111.028 20.6507 110.714 20.416C110.404 20.176 110.007 20.056 109.522 20.056C109.068 20.056 108.7 20.1653 108.418 20.384C108.14 20.6027 107.938 20.9093 107.81 21.304C107.682 21.6987 107.618 22.1573 107.618 22.68C107.618 23.2027 107.682 23.6613 107.81 24.056C107.938 24.4507 108.146 24.7573 108.434 24.976C108.727 25.1947 109.116 25.304 109.602 25.304ZM115.858 17.16V15.24H118.034V17.16H115.858ZM115.858 27V18.36H118.034V27H115.858ZM119.633 27V26.728L123.873 20.248H120.113V18.36H127.233V18.632L123.009 25.112H127.073V27H119.633ZM132.211 27.256C131.534 27.256 130.982 27.1413 130.555 26.912C130.128 26.6827 129.795 26.392 129.555 26.04C129.32 25.688 129.152 25.3227 129.051 24.944C128.95 24.56 128.888 24.2107 128.867 23.896C128.846 23.5813 128.835 23.352 128.835 23.208V18.36H131.043V22.44C131.043 22.6373 131.054 22.8907 131.075 23.2C131.096 23.504 131.163 23.8107 131.275 24.12C131.387 24.4293 131.568 24.688 131.819 24.896C132.075 25.104 132.435 25.208 132.899 25.208C133.086 25.208 133.286 25.1787 133.499 25.12C133.712 25.0613 133.912 24.9493 134.099 24.784C134.286 24.6133 134.438 24.3653 134.555 24.04C134.678 23.7093 134.739 23.2773 134.739 22.744L135.987 23.336C135.987 24.0187 135.848 24.6587 135.571 25.256C135.294 25.8533 134.875 26.336 134.315 26.704C133.76 27.072 133.059 27.256 132.211 27.256ZM135.011 27V24.136H134.739V18.36H136.931V27H135.011ZM141.567 27.24C140.948 27.24 140.423 27.1227 139.991 26.888C139.564 26.648 139.239 26.3307 139.015 25.936C138.796 25.536 138.687 25.096 138.687 24.616C138.687 24.216 138.748 23.8507 138.871 23.52C138.994 23.1893 139.191 22.8987 139.463 22.648C139.74 22.392 140.111 22.1787 140.575 22.008C140.895 21.8907 141.276 21.7867 141.719 21.696C142.162 21.6053 142.663 21.52 143.223 21.44C143.783 21.3547 144.399 21.2613 145.071 21.16L144.287 21.592C144.287 21.08 144.164 20.704 143.919 20.464C143.674 20.224 143.263 20.104 142.687 20.104C142.367 20.104 142.034 20.1813 141.687 20.336C141.34 20.4907 141.098 20.7653 140.959 21.16L138.991 20.536C139.21 19.8213 139.62 19.24 140.223 18.792C140.826 18.344 141.647 18.12 142.687 18.12C143.45 18.12 144.127 18.2373 144.719 18.472C145.311 18.7067 145.759 19.112 146.063 19.688C146.234 20.008 146.335 20.328 146.367 20.648C146.399 20.968 146.415 21.3253 146.415 21.72V27H144.511V25.224L144.783 25.592C144.362 26.1733 143.906 26.5947 143.415 26.856C142.93 27.112 142.314 27.24 141.567 27.24ZM142.031 25.528C142.431 25.528 142.767 25.4587 143.039 25.32C143.316 25.176 143.535 25.0133 143.695 24.832C143.86 24.6507 143.972 24.4987 144.031 24.376C144.143 24.1413 144.207 23.8693 144.223 23.56C144.244 23.2453 144.255 22.984 144.255 22.776L144.895 22.936C144.25 23.0427 143.727 23.1333 143.327 23.208C142.927 23.2773 142.604 23.3413 142.359 23.4C142.114 23.4587 141.898 23.5227 141.711 23.592C141.498 23.6773 141.324 23.7707 141.191 23.872C141.063 23.968 140.967 24.0747 140.903 24.192C140.844 24.3093 140.815 24.44 140.815 24.584C140.815 24.7813 140.863 24.952 140.959 25.096C141.06 25.2347 141.202 25.3413 141.383 25.416C141.564 25.4907 141.78 25.528 142.031 25.528ZM148.655 27V15.24H150.831V27H148.655Z" fill="#FF3838"/>
<path d="M73.792 46V36.512H70.16V34.48H79.6V36.512H75.968V46H73.792ZM83.6204 46.24C82.735 46.24 81.9537 46.0507 81.2764 45.672C80.6044 45.288 80.0764 44.7627 79.6924 44.096C79.3137 43.424 79.1244 42.656 79.1244 41.792C79.1244 40.848 79.311 40.0267 79.6844 39.328C80.0577 38.6293 80.5724 38.088 81.2284 37.704C81.8844 37.3147 82.639 37.12 83.4924 37.12C84.399 37.12 85.1697 37.3333 85.8044 37.76C86.439 38.1867 86.9084 38.7867 87.2124 39.56C87.5164 40.3333 87.623 41.2427 87.5324 42.288H85.3804V41.488C85.3804 40.608 85.239 39.976 84.9564 39.592C84.679 39.2027 84.223 39.008 83.5884 39.008C82.847 39.008 82.3004 39.2347 81.9484 39.688C81.6017 40.136 81.4284 40.8 81.4284 41.68C81.4284 42.4853 81.6017 43.1093 81.9484 43.552C82.3004 43.9893 82.815 44.208 83.4924 44.208C83.919 44.208 84.2844 44.1147 84.5884 43.928C84.8924 43.7413 85.1244 43.472 85.2844 43.12L87.4604 43.744C87.135 44.5333 86.6204 45.1467 85.9164 45.584C85.2177 46.0213 84.4524 46.24 83.6204 46.24ZM80.7564 42.288V40.672H86.4844V42.288H80.7564ZM93.1468 46.24C92.2508 46.24 91.4828 46.04 90.8428 45.64C90.2028 45.24 89.7121 44.696 89.3708 44.008C89.0294 43.32 88.8588 42.544 88.8588 41.68C88.8588 40.8053 89.0348 40.024 89.3868 39.336C89.7441 38.648 90.2454 38.1067 90.8908 37.712C91.5361 37.3173 92.2988 37.12 93.1788 37.12C94.1974 37.12 95.0508 37.3787 95.7388 37.896C96.4321 38.408 96.8748 39.1093 97.0668 40L94.8908 40.576C94.7628 40.128 94.5388 39.7787 94.2188 39.528C93.9041 39.2773 93.5468 39.152 93.1468 39.152C92.6881 39.152 92.3121 39.264 92.0188 39.488C91.7254 39.7067 91.5094 40.008 91.3708 40.392C91.2321 40.7707 91.1628 41.2 91.1628 41.68C91.1628 42.432 91.3281 43.0427 91.6588 43.512C91.9948 43.976 92.4908 44.208 93.1468 44.208C93.6374 44.208 94.0108 44.096 94.2668 43.872C94.5228 43.648 94.7148 43.328 94.8428 42.912L97.0668 43.376C96.8214 44.2933 96.3574 45 95.6748 45.496C94.9921 45.992 94.1494 46.24 93.1468 46.24ZM104.555 46V41.92C104.555 41.7227 104.544 41.472 104.523 41.168C104.502 40.8587 104.435 40.5493 104.323 40.24C104.211 39.9307 104.027 39.672 103.771 39.464C103.52 39.256 103.163 39.152 102.699 39.152C102.512 39.152 102.312 39.1813 102.099 39.24C101.886 39.2987 101.686 39.4133 101.499 39.584C101.312 39.7493 101.158 39.9947 101.035 40.32C100.918 40.6453 100.859 41.0773 100.859 41.616L99.6109 41.024C99.6109 40.3413 99.7495 39.7013 100.027 39.104C100.304 38.5067 100.72 38.024 101.275 37.656C101.835 37.288 102.539 37.104 103.387 37.104C104.064 37.104 104.616 37.2187 105.043 37.448C105.47 37.6773 105.8 37.968 106.035 38.32C106.275 38.672 106.446 39.04 106.547 39.424C106.648 39.8027 106.71 40.1493 106.731 40.464C106.752 40.7787 106.763 41.008 106.763 41.152V46H104.555ZM98.6509 46V34.48H100.587V40.4H100.859V46H98.6509ZM114.727 46V41.92C114.727 41.7227 114.716 41.472 114.695 41.168C114.673 40.8587 114.607 40.5493 114.495 40.24C114.383 39.9307 114.199 39.672 113.943 39.464C113.692 39.256 113.335 39.152 112.871 39.152C112.684 39.152 112.484 39.1813 112.271 39.24C112.057 39.2987 111.857 39.4133 111.671 39.584C111.484 39.7493 111.329 39.9947 111.207 40.32C111.089 40.6453 111.031 41.0773 111.031 41.616L109.783 41.024C109.783 40.3413 109.921 39.7013 110.199 39.104C110.476 38.5067 110.892 38.024 111.447 37.656C112.007 37.288 112.711 37.104 113.559 37.104C114.236 37.104 114.788 37.2187 115.215 37.448C115.641 37.6773 115.972 37.968 116.207 38.32C116.447 38.672 116.617 39.04 116.719 39.424C116.82 39.8027 116.881 40.1493 116.903 40.464C116.924 40.7787 116.935 41.008 116.935 41.152V46H114.727ZM108.823 46V37.36H110.759V40.224H111.031V46H108.823ZM122.742 46.24C121.873 46.24 121.11 46.0453 120.454 45.656C119.798 45.2667 119.286 44.7307 118.918 44.048C118.556 43.36 118.374 42.5707 118.374 41.68C118.374 40.7787 118.561 39.9867 118.934 39.304C119.308 38.616 119.822 38.08 120.478 37.696C121.134 37.312 121.889 37.12 122.742 37.12C123.612 37.12 124.374 37.3147 125.03 37.704C125.692 38.0933 126.206 38.632 126.574 39.32C126.942 40.0027 127.126 40.7893 127.126 41.68C127.126 42.576 126.94 43.368 126.566 44.056C126.198 44.7387 125.684 45.2747 125.022 45.664C124.366 46.048 123.606 46.24 122.742 46.24ZM122.742 44.208C123.441 44.208 123.961 43.9733 124.302 43.504C124.649 43.0293 124.822 42.4213 124.822 41.68C124.822 40.912 124.646 40.2987 124.294 39.84C123.948 39.3813 123.43 39.152 122.742 39.152C122.268 39.152 121.878 39.2587 121.574 39.472C121.27 39.6853 121.044 39.9813 120.894 40.36C120.75 40.7387 120.678 41.1787 120.678 41.68C120.678 42.4533 120.852 43.0693 121.198 43.528C121.55 43.9813 122.065 44.208 122.742 44.208ZM129.046 46V34.24H131.222V46H129.046ZM137.508 46.24C136.639 46.24 135.876 46.0453 135.22 45.656C134.564 45.2667 134.052 44.7307 133.684 44.048C133.321 43.36 133.14 42.5707 133.14 41.68C133.14 40.7787 133.327 39.9867 133.7 39.304C134.073 38.616 134.588 38.08 135.244 37.696C135.9 37.312 136.655 37.12 137.508 37.12C138.377 37.12 139.14 37.3147 139.796 37.704C140.457 38.0933 140.972 38.632 141.34 39.32C141.708 40.0027 141.892 40.7893 141.892 41.68C141.892 42.576 141.705 43.368 141.332 44.056C140.964 44.7387 140.449 45.2747 139.788 45.664C139.132 46.048 138.372 46.24 137.508 46.24ZM137.508 44.208C138.207 44.208 138.727 43.9733 139.068 43.504C139.415 43.0293 139.588 42.4213 139.588 41.68C139.588 40.912 139.412 40.2987 139.06 39.84C138.713 39.3813 138.196 39.152 137.508 39.152C137.033 39.152 136.644 39.2587 136.34 39.472C136.036 39.6853 135.809 39.9813 135.66 40.36C135.516 40.7387 135.444 41.1787 135.444 41.68C135.444 42.4533 135.617 43.0693 135.964 43.528C136.316 43.9813 136.831 44.208 137.508 44.208ZM147.347 50.08C146.857 50.08 146.39 50 145.947 49.84C145.505 49.6853 145.107 49.4667 144.755 49.184C144.409 48.9067 144.126 48.5813 143.907 48.208L145.923 47.232C146.062 47.488 146.259 47.6827 146.515 47.816C146.777 47.9493 147.059 48.016 147.363 48.016C147.689 48.016 147.995 47.96 148.283 47.848C148.571 47.7413 148.801 47.5787 148.971 47.36C149.147 47.1467 149.23 46.88 149.219 46.56V44.048H149.491V37.36H151.395V46.592C151.395 46.8053 151.385 47.0053 151.363 47.192C151.347 47.384 151.315 47.5733 151.267 47.76C151.129 48.288 150.87 48.7227 150.491 49.064C150.118 49.4053 149.659 49.6587 149.115 49.824C148.571 49.9947 147.982 50.08 147.347 50.08ZM147.155 46.24C146.361 46.24 145.665 46.04 145.067 45.64C144.47 45.24 144.003 44.696 143.667 44.008C143.337 43.32 143.171 42.544 143.171 41.68C143.171 40.8 143.339 40.0187 143.675 39.336C144.017 38.648 144.494 38.1067 145.107 37.712C145.721 37.3173 146.441 37.12 147.267 37.12C148.089 37.12 148.779 37.32 149.339 37.72C149.899 38.12 150.323 38.664 150.611 39.352C150.899 40.04 151.043 40.816 151.043 41.68C151.043 42.544 150.897 43.32 150.603 44.008C150.315 44.696 149.883 45.24 149.307 45.64C148.731 46.04 148.014 46.24 147.155 46.24ZM147.507 44.304C147.993 44.304 148.379 44.1947 148.667 43.976C148.961 43.7573 149.171 43.4507 149.299 43.056C149.427 42.6613 149.491 42.2027 149.491 41.68C149.491 41.1573 149.427 40.6987 149.299 40.304C149.171 39.9093 148.966 39.6027 148.683 39.384C148.406 39.1653 148.041 39.056 147.587 39.056C147.102 39.056 146.702 39.176 146.387 39.416C146.078 39.6507 145.849 39.968 145.699 40.368C145.55 40.7627 145.475 41.2 145.475 41.68C145.475 42.1653 145.547 42.608 145.691 43.008C145.835 43.4027 146.057 43.7173 146.355 43.952C146.654 44.1867 147.038 44.304 147.507 44.304ZM153.796 36.16V34.24H155.972V36.16H153.796ZM153.796 46V37.36H155.972V46H153.796ZM162.386 46.24C161.501 46.24 160.719 46.0507 160.042 45.672C159.37 45.288 158.842 44.7627 158.458 44.096C158.079 43.424 157.89 42.656 157.89 41.792C157.89 40.848 158.077 40.0267 158.45 39.328C158.823 38.6293 159.338 38.088 159.994 37.704C160.65 37.3147 161.405 37.12 162.258 37.12C163.165 37.12 163.935 37.3333 164.57 37.76C165.205 38.1867 165.674 38.7867 165.978 39.56C166.282 40.3333 166.389 41.2427 166.298 42.288H164.146V41.488C164.146 40.608 164.005 39.976 163.722 39.592C163.445 39.2027 162.989 39.008 162.354 39.008C161.613 39.008 161.066 39.2347 160.714 39.688C160.367 40.136 160.194 40.8 160.194 41.68C160.194 42.4853 160.367 43.1093 160.714 43.552C161.066 43.9893 161.581 44.208 162.258 44.208C162.685 44.208 163.05 44.1147 163.354 43.928C163.658 43.7413 163.89 43.472 164.05 43.12L166.226 43.744C165.901 44.5333 165.386 45.1467 164.682 45.584C163.983 46.0213 163.218 46.24 162.386 46.24ZM159.522 42.288V40.672H165.25V42.288H159.522ZM171.48 46.24C170.392 46.24 169.512 45.9947 168.84 45.504C168.174 45.008 167.768 44.3093 167.624 43.408L169.848 43.072C169.939 43.4773 170.139 43.7947 170.448 44.024C170.763 44.2533 171.16 44.368 171.64 44.368C172.035 44.368 172.339 44.2933 172.552 44.144C172.766 43.9893 172.872 43.776 172.872 43.504C172.872 43.3333 172.83 43.1973 172.744 43.096C172.659 42.9893 172.467 42.8853 172.168 42.784C171.875 42.6827 171.416 42.5493 170.792 42.384C170.088 42.2027 169.526 42 169.104 41.776C168.683 41.552 168.379 41.2853 168.192 40.976C168.006 40.6613 167.912 40.2827 167.912 39.84C167.912 39.2853 168.054 38.8053 168.336 38.4C168.619 37.9893 169.016 37.6747 169.528 37.456C170.046 37.232 170.654 37.12 171.352 37.12C172.03 37.12 172.63 37.224 173.152 37.432C173.675 37.64 174.096 37.936 174.416 38.32C174.742 38.704 174.942 39.1573 175.016 39.68L172.792 40.08C172.755 39.76 172.616 39.5067 172.376 39.32C172.136 39.1333 171.811 39.024 171.4 38.992C171 38.9653 170.678 39.0187 170.432 39.152C170.192 39.2853 170.072 39.4773 170.072 39.728C170.072 39.8773 170.123 40.0027 170.224 40.104C170.331 40.2053 170.547 40.3093 170.872 40.416C171.203 40.5227 171.704 40.6613 172.376 40.832C173.032 41.0027 173.558 41.2027 173.952 41.432C174.352 41.656 174.643 41.928 174.824 42.248C175.006 42.5627 175.096 42.944 175.096 43.392C175.096 44.2773 174.776 44.9733 174.136 45.48C173.496 45.9867 172.611 46.24 171.48 46.24Z" fill="#FF3838"/>
</svg>
